Coordinates
version=1
nRows=14
nColumns=40
inDegrees=yes

Units are S.I. units (second, meters, Newtons, ...)
If the header above contains a line with 'inDegrees', this indicates whether rotational values are in degrees (yes) or radians (no).

endheader
time	pelvis_tilt	pelvis_list	pelvis_rotation	pelvis_tx	pelvis_ty	pelvis_tz	hip_flexion_r	hip_adduction_r	hip_rotation_r	knee_angle_r	knee_angle_r_beta	ankle_angle_r	subtalar_angle_r	mtp_angle_r	hip_flexion_l	hip_adduction_l	hip_rotation_l	knee_angle_l	knee_angle_l_beta	ankle_angle_l	subtalar_angle_l	mtp_angle_l	lumbar_extension	lumbar_bending	lumbar_rotation	arm_flex_r	arm_add_r	arm_rot_r	elbow_flex_r	pro_sup_r	wrist_flex_r	wrist_dev_r	arm_flex_l	arm_add_l	arm_rot_l	elbow_flex_l	pro_sup_l	wrist_flex_l	wrist_dev_l
      1.29000000	      1.35401938	    -13.20513087	     89.81148544	      0.22378852	      0.96769201	     -0.64116039	     13.89503126	      4.76236442	     -2.56272576	     10.05372611	      0.17547062	      2.55789583	      0.00000000	      0.00000000	     33.07038468	     -2.30243423	     -3.25417151	     50.36877590	      0.87910098	      1.61678694	      0.00000000	      0.00000000	      5.38471938	      0.65244818	      4.43116385	      0.00000000	      0.00000000	      0.00000000	      0.00000000	      0.00000000	      0.00000000	      0.00000000	      0.00000000	      0.00000000	      0.00000000	      0.00000000	      0.00000000	      0.00000000	      0.00000000
      1.30000000	      1.02031779	    -13.14392201	     89.79459438	      0.22481940	      0.96794322	     -0.66149174	     11.65100219	      4.58286718	     -2.11426129	      8.39940347	      0.14659725	      2.53735963	      0.00000000	      0.00000000	     34.21859876	     -1.83916522	     -3.40301926	     47.04892375	      0.82115863	      2.22514959	      0.00000000	      0.00000000	      5.31265812	      0.12971145	      4.52479642	      0.00000000	      0.00000000	      0.00000000	      0.00000000	      0.00000000	      0.00000000	      0.00000000	      0.00000000	      0.00000000	      0.00000000	      0.00000000	      0.00000000	      0.00000000	      0.00000000
      1.31000000	      0.76386628	    -13.17367827	     89.77346827	      0.22581481	      0.96724852	     -0.68174371	      9.58852759	      4.47334532	     -1.79831925	      6.90843012	      0.12057485	      2.67152288	      0.00000000	      0.00000000	     35.34930405	     -1.43686871	     -3.47395556	     43.44069791	      0.75818321	      2.66276788	      0.00000000	      0.00000000	      5.33235536	     -0.29129269	      4.60754834	      0.00000000	      0.00000000	      0.00000000	      0.00000000	      0.00000000	      0.00000000	      0.00000000	      0.00000000	      0.00000000	      0.00000000	      0.00000000	      0.00000000	      0.00000000	      0.00000000
      1.32000000	      0.56410426	    -13.22471194	     89.73663649	      0.22683871	      0.96569517	     -0.70197670	      7.64763370	      4.42018667	     -1.50505421	      5.60747839	      0.09786896	      2.87599173	      0.00000000	      0.00000000	     36.40624547	     -1.12873600	     -3.58758439	     39.62369682	      0.69156397	      3.00995444	      0.00000000	      0.00000000	      5.36625783	     -0.63257700	      4.71042951	      0.00000000	      0.00000000	      0.00000000	      0.00000000	      0.00000000	      0.00000000	      0.00000000	      0.00000000	      0.00000000	      0.00000000	      0.00000000	      0.00000000	      0.00000000	      0.00000000
      1.33000000	      0.43747979	    -12.99539064	     89.67393858	      0.22790050	      0.96379927	     -0.72241794	      5.38480562	      4.45024020	     -1.13773343	      4.29386247	      0.07494204	      3.04557571	      0.00000000	      0.00000000	     37.02971045	     -0.94950728	     -3.84105069	     35.56804553	      0.62077950	      3.19487074	      0.00000000	      0.00000000	      5.05423443	     -0.88519176	      4.84616592	      0.00000000	      0.00000000	      0.00000000	      0.00000000	      0.00000000	      0.00000000	      0.00000000	      0.00000000	      0.00000000	      0.00000000	      0.00000000	      0.00000000	      0.00000000	      0.00000000
      1.34000000	      0.37568845	    -13.08340264	     89.58889453	      0.22890493	      0.96072368	     -0.74265724	      3.63974433	      4.52692101	     -0.90957931	      3.32420885	      0.05801839	      3.40694676	      0.00000000	      0.00000000	     37.95181291	     -0.81726200	     -4.02616165	     31.43040556	      0.54856406	      3.52876737	      0.00000000	      0.00000000	      5.10184308	     -1.04321212	      4.98311278	      0.00000000	      0.00000000	     -0.00000000	      0.00000000	      0.00000000	     -0.00000000	     -0.00000000	      0.00000000	      0.00000000	     -0.00000000	      0.00000000	      0.00000000	      0.00000000	     -0.00000000
      1.35000000	      0.24559274	    -12.63526432	     89.38807722	      0.22993314	      0.95783213	     -0.76328257	      1.23742234	      4.51807828	     -0.36924837	      2.24326689	      0.03915239	      3.66003058	      0.00000000	      0.00000000	     38.13476294	     -0.73011847	     -4.65492948	     27.08800205	      0.47277482	      3.60490700	      0.00000000	      0.00000000	      4.53153752	     -1.25671782	      5.17585478	      0.00000000	      0.00000000	      0.00000000	      0.00000000	      0.00000000	      0.00000000	      0.00000000	      0.00000000	      0.00000000	      0.00000000	      0.00000000	      0.00000000	      0.00000000	      0.00000000
      1.36000000	      0.14295050	    -12.38922134	     89.06716687	      0.23096935	      0.95412089	     -0.78379596	     -0.78648818	      4.49882125	      0.12788639	      1.48412069	      0.02590279	      4.05943286	      0.00000000	      0.00000000	     38.48081639	     -0.69263617	     -5.28821468	     22.77274759	      0.39745943	      3.81485929	      0.00000000	      0.00000000	      4.18600471	     -1.40243117	      5.47229757	      0.00000000	      0.00000000	      0.00000000	      0.00000000	      0.00000000	      0.00000000	      0.00000000	      0.00000000	      0.00000000	      0.00000000	      0.00000000	      0.00000000	      0.00000000	      0.00000000
      1.37000000	      0.00322861	    -12.16485801	     88.57946072	      0.23204015	      0.94997252	     -0.80438412	     -2.67927755	      4.38951199	      0.66300965	      0.95529065	      0.01667297	      4.59700241	      0.00000000	      0.00000000	     38.75894395	     -0.67120075	     -5.97546370	     18.51552557	      0.32315688	      4.00717700	      0.00000000	      0.00000000	      3.87446726	     -1.54984948	      5.90442795	      0.00000000	      0.00000000	      0.00000000	      0.00000000	      0.00000000	      0.00000000	      0.00000000	      0.00000000	      0.00000000	      0.00000000	      0.00000000	      0.00000000	      0.00000000	      0.00000000
      1.38000000	     -0.14346075	    -11.87229340	     87.95868521	      0.23309878	      0.94561351	     -0.82512570	     -4.57149680	      4.21041920	      1.29762319	      0.58899991	      0.01027999	      5.05701245	      0.00000000	     -0.00000000	     38.86565378	     -0.66297760	     -6.49081936	     14.42645111	      0.25178907	      4.34506109	      0.00000000	     -0.00000000	      3.49482003	     -1.68065676	      6.44912865	     -0.00000000	      0.00000000	      0.00000000	      0.00000000	      0.00000000	     -0.00000000	     -0.00000000	     -0.00000000	      0.00000000	     -0.00000000	      0.00000000	      0.00000000	     -0.00000000	      0.00000000
      1.39000000	     -0.22993479	    -11.75602207	     87.26660325	      0.23409943	      0.94078227	     -0.84592817	     -6.10915358	      4.03503119	      1.80508415	      0.57053346	      0.00995769	      5.65134479	      0.00000000	      0.00000000	     39.09383431	     -0.71992488	     -6.54811827	     10.67888716	      0.18638174	      4.77833193	      0.00000000	      0.00000000	      3.34130823	     -1.71258454	      7.10567667	      0.00000000	      0.00000000	      0.00000000	      0.00000000	      0.00000000	      0.00000000	      0.00000000	      0.00000000	      0.00000000	      0.00000000	      0.00000000	      0.00000000	      0.00000000	      0.00000000
      1.40000000	     -0.35596108	    -11.35802897	     86.51347924	      0.23504616	      0.93625841	     -0.86715222	     -7.92562765	      3.74337152	      2.35803018	      0.63258720	      0.01104073	      6.12059931	      0.00000000	      0.00000000	     38.87071487	     -0.75581660	     -6.25952681	      7.29952963	      0.12740083	      5.14674668	      0.00000000	      0.00000000	      2.88401507	     -1.80379118	      7.68968671	      0.00000000	      0.00000000	      0.00000000	      0.00000000	      0.00000000	      0.00000000	      0.00000000	      0.00000000	      0.00000000	      0.00000000	      0.00000000	      0.00000000	      0.00000000	      0.00000000
      1.41000000	     -0.42496921	    -11.16016966	     85.72788519	      0.23598544	      0.93146164	     -0.88852675	     -9.36041009	      3.46199889	      2.76751771	      1.03332029	      0.01803484	      6.58601893	      0.00000000	      0.00000000	     38.84052799	     -0.91971706	     -5.62966736	      4.66642219	      0.08144443	      5.67167719	      0.00000000	      0.00000000	      2.69341976	     -1.81703321	      8.40407602	      0.00000000	      0.00000000	      0.00000000	      0.00000000	      0.00000000	      0.00000000	      0.00000000	      0.00000000	      0.00000000	      0.00000000	      0.00000000	      0.00000000	      0.00000000	      0.00000000
      1.42000000	     -0.51266632	    -10.93106334	     84.92569171	      0.23689398	      0.92686401	     -0.91022370	    -10.68600511	      3.10300624	      3.08066196	      1.71639095	      0.02995667	      6.89760498	      0.00000000	      0.00000000	     38.76260643	     -1.12693377	     -5.04028076	      2.90640586	      0.05072635	      6.16964010	      0.00000000	      0.00000000	      2.50601581	     -1.85643365	      9.04354664	      0.00000000	      0.00000000	      0.00000000	      0.00000000	      0.00000000	      0.00000000	      0.00000000	      0.00000000	      0.00000000	      0.00000000	      0.00000000	      0.00000000	      0.00000000	      0.00000000
